<svg width="62" height="62" viewBox="0 0 62 62" fill="none" xmlns="http://www.w3.org/2000/svg">
<path d="M30.6231 43.1614L34.8958 38.8887L30.0127 34.0057H42.8308V27.9018H30.0127L34.8958 23.0187L30.6231 18.746L18.4154 30.9537L30.6231 43.1614ZM30.6231 61.473C26.4013 61.473 22.4338 60.6713 18.7206 59.068C15.0074 57.4668 11.7775 55.2928 9.03076 52.5461C6.28403 49.7994 4.11004 46.5694 2.5088 42.8562C0.90552 39.1431 0.103882 35.1756 0.103882 30.9537C0.103882 26.7319 0.90552 22.7644 2.5088 19.0512C4.11004 15.3381 6.28403 12.1081 9.03076 9.36138C11.7775 6.61465 15.0074 4.43965 18.7206 2.83637C22.4338 1.23513 26.4013 0.434509 30.6231 0.434509C34.8449 0.434509 38.8124 1.23513 42.5256 2.83637C46.2388 4.43965 49.4687 6.61465 52.2155 9.36138C54.9622 12.1081 57.1362 15.3381 58.7374 19.0512C60.3407 22.7644 61.1423 26.7319 61.1423 30.9537C61.1423 35.1756 60.3407 39.1431 58.7374 42.8562C57.1362 46.5694 54.9622 49.7994 52.2155 52.5461C49.4687 55.2928 46.2388 57.4668 42.5256 59.068C38.8124 60.6713 34.8449 61.473 30.6231 61.473Z" fill="#050505"/>
</svg>
