<svg width="62" height="62" viewBox="0 0 62 62" fill="none" xmlns="http://www.w3.org/2000/svg">
<path d="M31.1808 43.1614L26.9081 38.8887L31.7911 34.0057H18.9731V27.9018H31.7911L26.9081 23.0187L31.1808 18.746L43.3884 30.9537L31.1808 43.1614ZM31.1808 61.473C35.4026 61.473 39.3701 60.6713 43.0833 59.068C46.7964 57.4668 50.0264 55.2928 52.7731 52.5461C55.5198 49.7994 57.6938 46.5694 59.2951 42.8562C60.8983 39.1431 61.7 35.1756 61.7 30.9537C61.7 26.7319 60.8983 22.7644 59.2951 19.0512C57.6938 15.3381 55.5198 12.1081 52.7731 9.36138C50.0264 6.61465 46.7964 4.43965 43.0833 2.83637C39.3701 1.23513 35.4026 0.434509 31.1808 0.434509C26.9589 0.434509 22.9914 1.23513 19.2783 2.83637C15.5651 4.43965 12.3351 6.61465 9.58841 9.36138C6.84167 12.1081 4.66769 15.3381 3.06645 19.0512C1.46317 22.7644 0.661537 26.7319 0.661537 30.9537C0.661537 35.1756 1.46317 39.1431 3.06645 42.8562C4.66769 46.5694 6.84167 49.7994 9.58841 52.5461C12.3351 55.2928 15.5651 57.4668 19.2783 59.068C22.9914 60.6713 26.9589 61.473 31.1808 61.473Z" fill="#050505"/>
</svg>
