<svg width="213" height="172" viewBox="0 0 213 172" fill="none" xmlns="http://www.w3.org/2000/svg">
<path fill-rule="evenodd" clip-rule="evenodd" d="M74.2141 0C33.2262 0 0 32.3332 0 72.2161C0 112.103 33.2271 144.432 74.2141 144.432C115.203 144.432 148.429 112.103 148.429 72.2161C148.43 32.3332 115.203 0 74.2141 0ZM80.2282 130.67V115.377C101.782 112.486 118.397 94.27 118.397 72.2161C118.398 48.1521 98.6131 28.6444 74.2141 28.6444C49.8143 28.6444 30.0324 48.1521 30.0324 72.2161C30.0324 94.27 46.6468 112.487 68.201 115.377V130.67C38.1265 127.696 14.6422 102.666 14.6422 72.2161C14.6422 39.7687 41.3133 13.4638 74.2141 13.4638C107.113 13.4638 133.785 39.7687 133.785 72.2161C133.786 102.666 110.302 127.696 80.2282 130.67Z" fill="white"/>
<path d="M168.293 123.81V131.224H175.707V138.638H157.173V116.396H183.121C183.121 112.319 179.785 108.982 175.707 108.982H157.173C153.095 108.982 149.759 112.319 149.759 116.396V138.638C149.759 142.715 153.095 146.051 157.173 146.051H175.707C179.785 146.051 183.121 142.715 183.121 138.638V123.81H168.293Z" fill="white"/>
</svg>
