<svg width="80" height="81" viewBox="0 0 80 81" fill="none" xmlns="http://www.w3.org/2000/svg">
<path fill-rule="evenodd" clip-rule="evenodd" d="M5 40.0068C5 49.2894 8.68749 58.1918 15.2513 64.7556C21.815 71.3193 30.7174 75.0068 40 75.0068C49.2826 75.0068 58.185 71.3193 64.7487 64.7556C71.3125 58.1918 75 49.2894 75 40.0068C75 30.7243 71.3125 21.8219 64.7487 15.2581C58.185 8.69432 49.2826 5.00684 40 5.00684C30.7174 5.00684 21.815 8.69432 15.2513 15.2581C8.68749 21.8219 5 30.7243 5 40.0068ZM80 40.0068C80 50.6155 75.7857 60.7897 68.2843 68.2911C60.7828 75.7926 50.6087 80.0068 40 80.0068C29.3913 80.0068 19.2172 75.7926 11.7157 68.2911C4.21427 60.7897 0 50.6155 0 40.0068C0 29.3982 4.21427 19.224 11.7157 11.7226C19.2172 4.22111 29.3913 0.00683594 40 0.00683594C50.6087 0.00683594 60.7828 4.22111 68.2843 11.7226C75.7857 19.224 80 29.3982 80 40.0068ZM50.48 25.7368C50.9494 25.2681 51.5859 25.005 52.2493 25.0054C52.9127 25.0059 53.5487 25.2699 54.0175 25.7393C54.4863 26.2088 54.7494 26.8452 54.7489 27.5086C54.7484 28.172 54.4844 28.8081 54.015 29.2768L33.535 49.7568H47.375C48.038 49.7568 48.6739 50.0202 49.1428 50.4891C49.6116 50.9579 49.875 51.5938 49.875 52.2568C49.875 52.9199 49.6116 53.5558 49.1428 54.0246C48.6739 54.4934 48.038 54.7568 47.375 54.7568H27.5C26.837 54.7568 26.2011 54.4934 25.7322 54.0246C25.2634 53.5558 25 52.9199 25 52.2568V32.3818C25 31.7188 25.2634 31.0829 25.7322 30.6141C26.2011 30.1452 26.837 29.8818 27.5 29.8818C28.163 29.8818 28.7989 30.1452 29.2678 30.6141C29.7366 31.0829 30 31.7188 30 32.3818V46.2218L50.48 25.7368Z" fill="white"/>
</svg>
