<svg width="55" height="45" viewBox="0 0 55 45" fill="none" xmlns="http://www.w3.org/2000/svg">
<path fill-rule="evenodd" clip-rule="evenodd" d="M18.985 0.554199C8.49973 0.554199 0 8.67806 0 18.6988C0 28.7206 8.49996 36.8434 18.985 36.8434C29.4706 36.8434 37.9703 28.7206 37.9703 18.6988C37.9705 8.67806 29.4706 0.554199 18.985 0.554199ZM20.5235 33.3856V29.5432C26.0374 28.8169 30.2876 24.24 30.2876 18.6988C30.2878 12.6526 25.2266 7.75124 18.985 7.75124C12.7432 7.75124 7.68272 12.6526 7.68272 18.6988C7.68272 24.24 11.9329 28.8171 17.4468 29.5432V33.3856C9.75331 32.6385 3.74568 26.3494 3.74568 18.6988C3.74568 10.5463 10.5685 3.93704 18.985 3.93704C27.4011 3.93704 34.2242 10.5463 34.2242 18.6988C34.2244 26.3494 28.2168 32.6385 20.5235 33.3856Z" fill="black"/>
<path d="M43.0522 32.672V34.5686H44.9488V36.4651H40.2074V30.7755H46.8453C46.8453 29.7324 45.9919 28.8789 44.9488 28.8789H40.2074C39.1643 28.8789 38.3108 29.7324 38.3108 30.7755V36.4651C38.3108 37.5082 39.1643 38.3617 40.2074 38.3617H44.9488C45.9919 38.3617 46.8453 37.5082 46.8453 36.4651V32.672H43.0522Z" fill="black"/>
</svg>
